<svg width="916" height="1565" viewBox="0 0 916 1565" fill="none" xmlns="http://www.w3.org/2000/svg">
<path d="M-553.902 892.749L-556.669 889.983C-479.342 884.726 -367.916 935.286 -271.015 1019.74C-244.802 1042.63 -219.764 1049.27 -198.53 1038.97C-182.898 1031.36 -169.964 1015.1 -161.18 991.794C-152.466 968.555 -148.592 940.612 -150.045 910.94C-150.598 899.597 -150.529 885.971 -150.391 871.446C-149.837 804.079 -149.215 711.882 -211.118 692.584C-245.009 682.071 -271.223 699.985 -298.889 718.937C-326.97 738.165 -356.02 758.084 -393.023 744.597C-404.159 740.516 -415.433 734.222 -426.845 725.715L-422.626 721.496C-411.906 729.45 -401.392 735.26 -390.948 739.064C-356.781 751.513 -330.152 733.323 -302.071 714.095C-274.404 695.144 -245.839 675.57 -209.25 686.982C-160.973 702.06 -148.316 756.632 -145.272 811.964C-140.569 853.602 -142.437 897.937 -140.293 927.056C-132.823 1027.21 -186.218 1113.8 -266.381 1051.07C-345.368 989.374 -433.554 949.327 -505.832 940.681L-553.902 892.749Z" fill="#F9FAFC"/>
<path d="M323.261 264.727C332.529 271.644 343.457 277.592 355.008 283.886C374.789 294.676 394.985 305.742 408.611 322.411C423.412 334.584 435.655 348.902 441.119 367.784C447.62 390.332 432.957 414.54 412.623 422.84C348.852 448.846 278.926 383.623 218.406 425.468L218.337 425.537C191.155 441.099 178.774 477.55 176.007 506.737C171.443 556.26 190.117 619.477 222.556 661.046C224.285 662.636 226.014 664.366 227.743 665.956C242.96 680.343 259.767 696.32 274.914 713.681C302.442 741.485 328.517 772.955 336.886 808.576C350.166 864.738 285.427 910.111 262.534 867.712C259.836 867.366 257.139 866.744 254.718 865.706C245.104 861.764 232.931 850.836 230.372 821.302C227.536 789.278 217.853 766.454 200.077 749.37C184.376 734.361 162.036 723.502 127.73 714.096C97.2972 705.796 62.3686 703.513 25.365 701.231C-31.6965 697.565 -90.8329 693.761 -134.2 666.025C-160.759 649.011 -185.036 623.35 -206.339 589.598C-216.783 573.067 -226.605 554.531 -235.596 534.196L-231.17 529.77C-222.04 550.658 -212.08 569.609 -201.429 586.485C-180.61 619.477 -156.886 644.584 -131.087 661.115C-88.9656 688.02 -30.6591 691.824 25.78 695.421C63.0602 697.842 98.3346 700.055 129.321 708.493C164.664 718.107 187.766 729.45 204.158 745.151C223.109 763.272 233.277 787.273 236.251 820.818C238.118 841.913 245.311 855.47 257 860.242C267.444 864.461 280.586 861.141 292.206 851.182C305.416 839.908 318.419 817.083 312.056 789.832C301.128 743.352 258.176 702.752 223.732 670.106C220.204 666.717 216.677 663.466 213.288 660.216C172.273 620.999 145.436 546.438 150.97 486.956C153.736 457.077 166.67 419.52 194.751 403.473L194.821 403.404C223.109 387.565 260.874 395.588 297.393 403.473C323.745 409.076 348.575 414.401 369.325 411.082C389.176 407.969 404.461 399.323 412.346 386.874C418.986 376.36 420.3 363.703 416.15 349.178C407.574 319.161 379.354 303.806 352.172 288.935C340.414 282.572 329.347 276.485 319.733 269.361C292.136 248.819 266.476 217.764 247.455 182.005C229.542 148.183 219.305 112.632 218.129 80.6087L223.87 74.868C224.008 107.376 234.176 144.241 252.712 179.239C270.972 213.821 296.701 244.946 323.261 264.727Z" fill="#F9FAFC"/>
<path d="M-192.631 1130.49C-135.085 1148.61 -80.652 1165.83 -46.2076 1155.87C-24.9738 1149.72 -11.7631 1139.41 -5.74575 1124.4C10.2315 1083.8 -30.5762 1015.47 -66.5423 955.154C-93.7243 909.712 -117.102 870.426 -116.756 845.042C-116.341 814.609 -105.759 792.269 -85.3553 778.643C-27.0488 739.565 93.5759 782.171 129.196 796.211C185.704 818.413 211.019 849.399 219.803 906.876C220.91 914.069 221.67 922.023 222.5 930.461C226.166 967.465 230.869 1013.53 266.628 1030.2C294.64 1043.27 311.24 1069.14 314.56 1104.97C317.257 1134.91 310.341 1170.74 295.47 1203.18C290.075 1214.94 283.919 1226.63 277.971 1237.97C255.838 1280.02 235.019 1319.79 245.74 1369.11C249.198 1385.02 254.593 1402.72 261.717 1420.78L257.222 1425.27C249.475 1406.04 243.665 1387.23 239.999 1370.28C228.864 1318.89 251.204 1276.36 272.784 1235.14C278.663 1223.86 284.818 1212.31 290.144 1200.62C304.669 1169.08 311.447 1134.36 308.75 1105.38C306.606 1081.93 297.13 1050.74 264.207 1035.39C225.405 1017.33 220.564 969.471 216.76 930.946C215.93 922.646 215.1 914.761 214.062 907.637C205.693 852.65 181.347 822.909 127.121 801.606C106.856 793.652 66.463 779.266 23.4421 772.211C-23.9363 764.533 -59.4182 768.338 -81.9662 783.416C-100.641 796.004 -110.393 816.684 -110.808 845.042C-111.154 868.766 -86.9461 909.297 -61.424 952.11C-24.6972 1013.6 16.8714 1083.25 -0.2125 1126.48C-6.78323 1143.15 -21.6538 1154.83 -44.4785 1161.47C-80.652 1171.92 -135.846 1154.49 -194.291 1136.02C-246.442 1119.56 -299.907 1102.75 -340.922 1105.59L-346.317 1100.19C-303.572 1095.49 -247.479 1113.13 -192.631 1130.49Z" fill="#F9FAFC"/>
<path d="M-138.766 1233.18C-105.151 1244.52 -73.3351 1255.17 -49.1963 1251.37C-11.4319 1245.42 19.8309 1226.61 38.8515 1198.32C58.287 1169.48 64.0277 1132.34 54.967 1093.95C51.3012 1078.53 38.3673 1054.25 24.6034 1028.45C-2.92452 976.852 -34.1181 918.407 -16.4117 888.804C-10.6018 879.121 -2.71696 873.035 7.03538 870.752C33.1108 864.596 67.4168 886.591 94.8755 904.228C106.772 911.837 117.008 918.476 124.478 921.381C164.802 937.22 182.854 959.422 189.148 1000.44C190.047 1006.59 190.601 1012.96 191.223 1019.8C192.745 1037.51 194.197 1055.84 203.189 1069.67C207.615 1076.45 213.979 1080.74 220.757 1085.3C228.849 1090.77 237.287 1096.44 241.645 1106.47C259.213 1146.17 229.817 1196.59 206.163 1237.12C199.592 1248.4 193.367 1259.05 188.941 1268.18C160.168 1327.66 120.743 1409 136.721 1482.66C139.833 1496.98 145.159 1513.23 152.352 1529.55L147.925 1533.98C140.041 1516.55 134.231 1499.12 130.98 1483.84C114.588 1408.24 154.496 1325.72 183.684 1265.55C188.249 1256.14 194.543 1245.42 201.114 1234.01C224.077 1194.59 252.711 1145.62 236.319 1108.61C232.515 1100.11 225.253 1095.19 217.506 1089.94C210.589 1085.23 203.327 1080.32 198.278 1072.65C188.456 1057.57 186.866 1038.55 185.344 1020.15C184.791 1013.51 184.237 1007.15 183.338 1001.27C177.459 962.604 160.375 941.785 122.265 926.776C114.311 923.664 103.798 916.886 91.6248 909.139C64.9961 892.055 31.9349 870.891 8.28031 876.424C-0.0195558 878.36 -6.38273 883.34 -11.501 891.778C-27.5474 918.615 4.13043 977.959 29.7217 1025.68C44.2464 1052.93 56.8345 1076.45 60.6386 1092.57C69.976 1132.61 64.0277 1171.35 43.6238 1201.57C23.635 1231.24 -8.94192 1250.96 -48.3662 1257.18C-73.9575 1261.19 -106.396 1250.33 -140.702 1238.71C-170.997 1228.48 -201.983 1218.1 -228.612 1218.17L-234.421 1212.36C-205.51 1210.7 -171.758 1222.04 -138.766 1233.18Z" fill="#F9FAFC"/>
<path d="M-73.2584 1313.48L-69.4543 1313.14C-21.5918 1308.29 32.5648 1302.83 57.1186 1255.73C63.2051 1244.11 67.2167 1230.83 71.09 1218.1C79.6665 1190.02 88.5197 1160.97 119.852 1146.52C138.872 1137.73 149.8 1141.33 155.749 1145.89C165.224 1153.29 168.406 1168.37 164.602 1188.22C158.861 1218.31 142.884 1245.21 127.391 1271.22C119.921 1283.81 112.174 1296.81 105.88 1309.75C80.6348 1361.97 47.1587 1430.99 50.202 1496.98L44.1846 1490.96C43.4238 1425.6 75.9316 1358.37 100.624 1307.26C107.056 1294.05 114.803 1280.9 122.342 1268.25C137.558 1242.66 153.189 1216.23 158.792 1187.12C162.043 1169.76 159.622 1156.41 152.083 1150.53C145.581 1145.41 135.276 1145.89 122.272 1151.84C93.2921 1165.19 85.2689 1191.75 76.6924 1219.83C72.6808 1232.83 68.6 1246.32 62.3059 1258.43L62.2368 1258.49C36.1614 1308.36 -19.6551 1313.97 -68.9701 1319.01L-72.7742 1319.36C-74.0192 1319.5 -75.8175 1319.64 -77.9616 1319.84C-94.2847 1321.37 -108.879 1323.1 -121.674 1325.1L-126.862 1319.91C-110.608 1317.22 -93.5239 1315.35 -78.4459 1313.97C-76.2325 1313.83 -74.5034 1313.62 -73.2584 1313.48Z" fill="#F9FAFC"/>
<path d="M394.271 480.045C421.033 491.48 441.009 506.171 450.59 521.331C464.224 542.917 460.369 566.16 456.544 588.622C455.245 596.696 453.834 605.156 453.318 613.261C451.99 634.451 458.042 652.213 464.443 671.065C471.106 690.711 478.039 710.955 475.806 735.242L475.688 735.727C472.887 747.167 469.181 756.712 464.774 764.173C451.06 799.067 423.503 827.541 390.118 812.809C348.075 794.211 355.766 718.552 340.389 681.626C319.564 631.465 264.152 616.744 238.101 569.999C219.454 536.566 231.24 491.023 244.75 481.083C246.364 479.874 248.17 478.771 249.972 477.765C250.886 476.92 251.797 476.173 252.805 475.43C266.62 465.208 287.663 460.363 313.759 461.395C339.37 462.309 368.663 469.146 394.271 480.045ZM458.791 672.897C452.476 654.342 445.99 635.192 447.363 612.83C447.891 604.432 449.307 595.873 450.71 587.608C454.434 565.24 457.915 544.038 445.572 524.461C427.333 495.547 366.798 469.268 313.531 467.161C288.803 466.183 269.047 470.688 256.341 480.073C242.729 490.107 244.099 509.935 260.184 538.861C271.335 558.881 285.687 577.167 299.671 594.851C318.217 618.491 337.419 642.842 349.489 671.805C353.869 682.355 356.939 693.832 359.829 704.91C367.313 733.497 374.468 760.504 403.427 773.298C412.472 777.278 420.804 779.467 427.939 779.749C448.464 780.561 462.265 765.738 470.062 734.427C471.948 711.497 465.285 691.851 458.791 672.897Z" fill="#F9FAFC"/>
<path d="M-48.1887 560.48C-50.8156 559.06 -53.2504 557.191 -55.529 555.005C-69.8586 541.14 -76.2431 518.736 -73.1032 493.656C-69.4237 464.424 -53.6732 437.711 -32.9192 425.728C-30.7167 424.457 -28.3316 423.306 -26.0672 422.337C-16.1848 418.326 -6.16093 418.863 3.87097 423.914C23.85 434.065 40.097 461.619 45.3339 482.427C48.3358 494.474 45.0393 508.914 36.027 523.04C27.8583 535.889 15.4627 547.676 1.99372 555.452C-16.6068 566.079 -34.9429 567.968 -48.1887 560.48ZM39.6381 483.909C35.5236 467.196 20.8276 439.199 1.16471 429.204C-7.28647 424.935 -15.6843 424.475 -23.8951 427.86C-25.9902 428.731 -28.0363 429.686 -30.0694 430.86C-49.2987 441.962 -64.0135 466.948 -67.3612 494.407C-70.2181 517.629 -64.4241 538.229 -51.483 550.862C-49.6185 552.722 -47.5128 554.217 -45.3356 555.445C-33.8172 561.897 -17.7134 560.054 -0.940742 550.37C23.0681 536.395 45.4558 507.092 39.6381 483.909Z" fill="#F9FAFC"/>
<path d="M120.697 607.123C121.938 611.755 121.859 618.561 114.514 624.501C107.648 630.064 94.0207 634.791 85.3713 634.627C72.9018 634.41 61.6718 620.291 58.0725 606.858C55.5075 597.286 56.8771 588.81 61.9678 583.722C62.9397 582.717 64.1073 581.825 65.3935 581.067C72.0918 577.038 82.3527 577.35 93.4785 581.816C104.898 586.451 117.739 596.084 120.697 607.123ZM67.8077 585.136C66.8869 585.714 66.0639 586.348 65.3388 587.039C61.508 590.961 60.5739 597.666 62.7045 605.617C66.6762 620.44 77.5914 629.678 85.5046 629.875C92.9133 630.041 105.537 625.583 111.524 620.752C115.808 617.287 117.348 613.151 116.065 608.364C113.893 600.258 103.853 591.199 91.5943 586.21C82.0499 582.396 73.1634 581.964 67.8077 585.136Z" fill="#F9FAFC"/>
<path d="M17.9853 245.123C-2.83372 261.1 -48.5527 253.838 -67.2276 249.964C-76.0117 248.097 -84.5192 245.953 -92.6808 243.463L-87.9775 238.76C-80.9225 240.835 -73.5217 242.702 -66.0518 244.224C-28.7711 251.901 1.31623 250.587 14.4578 240.489C25.0403 232.396 24.2795 218.356 12.1753 198.781C5.53538 187.992 -6.15375 178.377 -19.0878 169.87L-14.8687 165.651C-1.72707 174.366 10.1004 184.395 17.1553 195.738C26.7694 211.162 34.6544 232.327 17.9853 245.123Z" fill="#F9FAFC"/>
<path d="M227.687 355.092C216.62 366.712 200.574 373.213 178.51 375.219C143.927 378.262 110.105 366.158 77.4591 354.539C75.4533 353.778 73.5167 353.086 71.5109 352.464C0.201247 327.08 -60.8027 309.512 -126.648 306.469C-129.553 306.33 -132.804 306.123 -136.401 305.984C-141.657 305.708 -147.675 305.362 -154.176 305.085L-148.574 299.483C-144.078 299.69 -139.928 299.967 -136.124 300.174C-132.597 300.382 -129.277 300.52 -126.441 300.728C-59.8344 303.84 1.58456 321.547 73.4475 347.069C75.3842 347.76 77.39 348.521 79.465 349.213C111.558 360.694 144.688 372.522 178.026 369.617C198.568 367.749 213.508 361.801 223.468 351.288C236.609 337.593 244.425 322.722 246.085 308.336C247.883 292.704 242.488 278.595 229.831 266.491C207.49 244.98 177.887 234.882 149.184 225.13C120.618 215.377 91.2231 205.348 67.8451 184.045C48.133 165.993 33.1932 146.074 24.4092 126.5L28.8358 122.073C37.1356 141.44 51.9371 161.498 71.7876 179.688C94.1972 200.161 123.108 209.983 151.051 219.527C180.239 229.487 210.464 239.793 233.842 262.202C260.471 287.586 258.119 323.276 227.687 355.092Z" fill="#F9FAFC"/>
</svg>
