<svg width="115" height="102" viewBox="0 0 115 102" fill="none" xmlns="http://www.w3.org/2000/svg">
<path d="M100.404 51.372C100.404 51.372 100.135 51.0292 99.5975 50.3434C99.0599 49.6577 98.2921 48.7054 97.3326 47.5627C96.7958 47.068 96.2582 46.3823 95.5682 45.7735C94.9544 45.1263 94.3021 44.4028 93.4587 43.68C92.6154 42.9572 91.772 42.2344 90.8902 41.4353C89.9321 40.6747 88.8977 39.9527 87.8633 39.2306C85.6797 37.7487 83.3051 36.2675 80.5106 34.9025C77.831 33.5753 74.8839 32.2873 71.7473 31.3821L70.5996 31.0044L69.3756 30.6651C68.6107 30.477 67.731 30.251 66.9661 30.0629C66.1627 29.7984 65.2838 29.7636 64.5189 29.5754C63.6777 29.4257 62.8365 29.2761 61.9953 29.1264C60.2752 28.9419 58.5551 28.7573 56.8734 28.6491L54.275 28.6207C53.3961 28.5858 52.5171 28.5509 51.7152 28.6686C49.958 28.7899 48.2386 28.7964 46.5969 29.1464C45.7949 29.2641 44.9167 29.4203 44.0762 29.4617C43.2743 29.5793 42.4346 29.8118 41.5563 29.9679C40.7166 30.2003 39.9146 30.318 39.1512 30.5119C38.3114 30.7444 37.5865 31.0146 36.7467 31.247L35.5634 31.5572L35.2198 31.6349L35.0673 31.7119C35.1435 31.6734 35.0673 31.7119 35.0673 31.7119L34.991 31.7504L34.4186 31.9436C33.6173 32.2523 32.7776 32.4847 32.0911 32.8312C29.2298 33.9883 26.4462 35.489 24.0831 37.0646C21.6438 38.6786 19.5103 40.3297 17.7974 42.0556C16.0082 43.82 14.4479 45.4689 13.3844 47.1542C13.194 47.3459 13.1185 47.5755 12.9282 47.7673C12.8141 47.9205 12.6623 48.1886 12.5482 48.3418C12.2824 48.7632 12.0928 49.146 11.7884 49.491C11.4092 50.2566 10.9915 50.946 10.6501 51.5968C10.4234 52.2855 10.1198 52.8216 9.85461 53.4339C9.62724 53.9315 9.51463 54.4669 9.32502 54.8497C9.0221 55.5768 8.87099 56.0359 8.87099 56.0359L8.83322 56.1507C8.64435 56.7245 7.95788 57.071 7.34552 56.8059C6.88643 56.6548 6.54067 56.1593 6.577 55.6625C6.577 55.6625 6.61333 55.1656 6.64822 54.2867C6.6831 53.4077 6.90759 52.1459 7.28318 50.4251C7.5476 49.6217 7.77354 48.742 8.15202 47.7853C8.37939 47.2877 8.5305 46.8287 8.75787 46.3311C8.83342 46.1015 8.98525 45.8335 9.13707 45.5654C9.2889 45.2974 9.36445 45.0679 9.51627 44.7998C10.5783 42.7325 12.1365 40.5104 14.039 38.4017C16.057 36.5218 18.3801 34.4879 21.086 32.6436C23.8305 30.8756 26.8429 29.2594 30.2389 28.0238C31.1164 27.6766 31.8799 27.4827 32.6811 27.174L33.2535 26.9807L33.4823 26.8653L33.6349 26.7883L34.017 26.7868L35.2766 26.4382C36.1163 26.2057 37.0708 26.0111 37.9106 25.7786C38.7888 25.6225 39.667 25.4663 40.6215 25.2717C41.4998 25.1155 42.4543 24.9208 43.371 24.841C44.2877 24.7611 45.2045 24.6812 46.1597 24.6776C47.9931 24.5178 49.8658 24.6253 51.6615 24.5803C52.6167 24.5767 53.5342 24.6879 54.4131 24.7228L57.127 24.98C58.9619 25.2023 60.759 25.5394 62.5562 25.8765C63.4359 26.1024 64.3155 26.3283 65.1567 26.478C66.0364 26.7039 66.8776 26.8536 67.7195 27.1943C68.5229 27.4587 69.4025 27.6847 70.2059 27.9491L71.4299 28.2883L72.6162 28.7424C74.1852 29.386 75.792 29.9149 77.2848 30.597C78.7775 31.2791 80.2318 31.885 81.6105 32.7204C84.3672 34.2001 86.895 35.7954 89.0408 37.3921C90.1137 38.1904 91.1866 38.9888 92.1447 39.7493C93.0266 40.5484 93.9847 41.309 94.7518 42.0703C95.5951 42.7931 96.3622 43.5543 96.976 44.2016C97.6283 44.9251 98.3184 45.5339 98.8937 46.1048C99.968 47.2853 100.66 48.2761 101.235 48.8471C101.772 49.5328 102.117 49.8372 102.117 49.8372C102.539 50.2941 102.466 51.0968 101.971 51.4425C101.591 52.0171 100.864 51.9052 100.404 51.372C100.442 51.4483 100.442 51.4483 100.404 51.372Z" fill="#FED011"/>
<path d="M107.642 45.6129C107.49 45.8809 107.377 46.2252 107.264 46.5696L106.999 47.373C106.81 47.9468 106.736 48.5585 106.662 49.1701C106.588 49.7817 106.59 50.3549 106.516 50.9665C106.518 51.5396 106.559 52.1891 106.637 52.7237C106.754 53.3346 106.833 53.8692 106.95 54.4802C107.067 55.0911 107.336 55.625 107.529 56.1974C107.723 56.7698 107.992 57.3037 108.262 57.8376C108.531 58.3716 108.877 58.867 109.108 59.3246C109.685 60.2777 109.46 61.5394 108.507 62.1162C108.012 62.462 107.362 62.5026 106.788 62.3138L106.291 62.0864L103.153 60.9902C102.12 60.6502 101.049 60.2339 100.016 59.8939C98.9446 59.4777 97.9494 59.0229 96.992 58.4534C96.4559 58.1498 96.0346 57.8839 95.5748 57.5417C95.383 57.3514 95.115 57.1996 94.8085 56.9715C94.77 56.8952 94.6552 56.8574 94.77 56.8952C94.8462 56.8567 94.961 56.8945 95.3424 56.702C95.5712 56.5865 95.7615 56.3947 95.8371 56.1652C96.0267 55.7824 95.8749 56.0504 95.9511 56.0119L95.8741 55.8594C95.9497 55.6298 95.9105 55.3625 95.9097 55.1715C95.832 54.8279 95.6788 54.7138 95.5255 54.5998C95.2574 54.448 95.1427 54.4102 94.8368 54.3731C94.6458 54.3738 94.4163 54.2983 93.9593 54.7203C93.8453 54.8736 93.8075 54.9884 93.6935 55.1416C93.6557 55.2564 93.6179 55.3712 93.6564 55.4475C93.6186 55.5622 93.6571 55.6385 93.6956 55.7148C93.7341 55.7911 93.7341 55.7911 93.7726 55.8673C93.5794 55.2949 93.8061 54.6063 94.4548 54.3746C95.0272 54.1814 95.7158 54.408 95.9475 55.0567C95.986 55.133 96.0245 55.2092 96.0245 55.2092C96.063 55.2855 96.063 55.2855 96.0637 55.4766C96.026 55.5913 96.0645 55.6676 95.9889 55.8972C95.9511 56.0119 95.8756 56.2415 95.723 56.3185C95.1898 56.779 94.9603 56.7035 94.693 56.7427C94.3109 56.7441 94.1576 56.6301 93.7748 56.4405C93.6215 56.3264 93.4298 56.1361 93.3135 55.7162C93.2365 55.5637 93.2736 55.2579 93.3491 55.0283L93.3869 54.9135C93.4247 54.7988 93.2729 55.0668 93.4625 54.684C93.6143 54.416 93.8424 54.1094 94.1475 53.9554C94.6814 53.6859 94.9872 53.723 95.1783 53.7223C95.4841 53.7593 95.4456 53.683 95.5604 53.7208C95.904 53.6431 96.2098 53.6802 96.4771 53.6409C97.1265 53.6003 97.7381 53.6744 98.3498 53.7485C99.573 53.8967 100.759 54.1597 101.868 54.6522C103.016 55.03 104.088 55.6373 105.122 56.1683C106.194 56.7756 107.19 57.4214 108.224 58.1435L105.216 60.9059C105.061 60.2187 104.829 59.5701 104.75 58.8444L104.593 57.7751L104.475 56.7821L104.356 55.7891L104.314 54.7576L104.272 53.7261L104.23 52.6946C104.266 52.0067 104.301 51.3188 104.337 50.6309C104.373 49.9429 104.447 49.3313 104.559 48.6049C104.709 47.9548 104.744 47.2669 104.895 46.6167L105.159 45.6223C105.196 45.3165 105.309 44.9721 105.346 44.6663C105.496 44.0162 106.068 43.6319 106.718 43.7823C107.368 43.9327 107.753 44.5044 107.602 45.1545C107.68 45.4981 107.642 45.6129 107.642 45.6129Z" fill="#FED011"/>
</svg>
