<svg width="147" height="143" viewBox="0 0 147 143" fill="none" xmlns="http://www.w3.org/2000/svg">
  <path
    d="M70.5239 143C109.473 143 141.048 110.988 141.048 71.5C141.048 32.0116 109.473 0 70.5239 0C31.5746 0 0 32.0116 0 71.5C0 110.988 31.5746 143 70.5239 143Z"
    fill="#A86700"/>
  <path
    d="M76.3806 143C115.33 143 146.904 110.988 146.904 71.5C146.904 32.0116 115.33 0 76.3806 0C37.4313 0 5.85669 32.0116 5.85669 71.5C5.85669 110.988 37.4313 143 76.3806 143Z"
    fill="#FFB93E"/>
  <path
    d="M93.0699 70.2538C97.4094 67.2617 99.5345 63.0741 99.5345 57.774C99.5345 53.158 97.9184 49.3159 94.686 46.151C91.7494 43.2764 88.2489 41.7423 84.1225 41.4936V35.5922C84.1225 34.2655 83.0496 33.1875 81.7292 33.1875C80.4087 33.1875 79.3359 34.2655 79.3359 35.5922V41.4521H76.4336V35.5922C76.4336 34.2655 75.3608 33.1875 74.0403 33.1875C72.7199 33.1875 71.647 34.2655 71.647 35.5922V41.4521H63.745C61.1523 41.4521 59.0547 43.5666 59.0547 46.1648V96.5678C59.0547 99.166 61.1523 101.281 63.745 101.281H71.647V106.919C71.647 108.246 72.7199 109.324 74.0403 109.324C75.3608 109.324 76.4336 108.246 76.4336 106.919V101.281H79.3359V106.919C79.3359 108.246 80.4087 109.324 81.7292 109.324C83.0496 109.324 84.1225 108.246 84.1225 106.919V101.281H84.7346C89.5831 101.281 93.6682 99.6567 96.9831 96.4089C100.298 93.1611 102.003 89.1462 102.003 84.3575C102.003 77.9448 98.5167 72.9004 93.0699 70.2538ZM66.9567 51.8381C66.9567 50.2073 68.2703 48.8875 69.8933 48.8875H82.8639C83.2972 48.8875 83.7167 48.9151 84.1225 48.9773C86.0344 49.2468 87.6643 50.1451 89.0741 51.6239C90.8622 53.4205 91.7082 55.5558 91.7082 58.0366C91.7082 62.7286 88.5102 66.4877 84.1225 67.0958C83.7098 67.1511 83.2903 67.1857 82.8639 67.1857H69.8933C68.2703 67.1857 66.9567 65.8658 66.9567 64.235V51.8381ZM84.7346 93.8452H69.3294C68.0158 93.8452 66.9567 92.781 66.9567 91.4612V76.8323C66.9567 75.5124 68.0158 74.4483 69.3294 74.4483H84.7346C87.3686 74.4483 89.5831 75.3881 91.3712 77.2676C93.2418 79.1472 94.1771 81.4552 94.1771 84.1018C94.1771 89.5678 90.092 93.8452 84.7346 93.8452Z"
    fill="#A86700"/>
  <path
    d="M77.3567 27.3316C79.9174 27.3316 81.9933 25.2558 81.9933 22.6951C81.9933 20.1344 79.9174 18.0586 77.3567 18.0586C74.7961 18.0586 72.7202 20.1344 72.7202 22.6951C72.7202 25.2558 74.7961 27.3316 77.3567 27.3316Z"
    fill="#A86700"/>
  <path
    d="M77.3567 124.455C79.9174 124.455 81.9933 122.379 81.9933 119.818C81.9933 117.257 79.9174 115.182 77.3567 115.182C74.7961 115.182 72.7202 117.257 72.7202 119.818C72.7202 122.379 74.7961 124.455 77.3567 124.455Z"
    fill="#A86700"/>
  <path
    d="M76.3805 131.774C109.669 131.774 136.655 104.788 136.655 71.4993C136.655 38.2105 109.669 11.2246 76.3805 11.2246C43.0916 11.2246 16.1057 38.2105 16.1057 71.4993C16.1057 104.788 43.0916 131.774 76.3805 131.774Z"
    stroke="#A86700" stroke-width="11"/>
</svg>
