<svg width="1114" height="943" viewBox="0 0 1114 943" fill="none" xmlns="http://www.w3.org/2000/svg">
    <g opacity="0.08">
        <path d="M75.0808 1212.21L70.8122 1212.21C126.526 1148.6 251.573 1101.87 391.493 1092.52C429.381 1090.03 453.844 1075.88 462.319 1051.56C468.541 1033.65 466.02 1011.12 454.86 986.346C443.7 961.675 425.176 937.097 401.205 915.284C392.043 906.944 381.604 896.36 370.526 885.028C319.078 832.538 248.563 760.805 185.862 793.559C151.574 811.532 145.11 845.562 138.321 881.513C131.426 917.997 124.314 955.761 85.3305 973.831C73.5821 979.253 60.0224 983.07 44.6515 985.283L44.6633 978.773C59.0736 976.665 71.6724 973.06 82.6733 967.957C118.666 951.268 125.239 916.705 132.134 880.221C138.923 844.27 145.926 807.146 182.991 787.792C231.913 762.269 283.717 794.697 328.678 835.117C364.375 863.674 397.072 899.376 421.152 920.229C504.046 991.878 529.461 1099.92 419.201 1113.17C310.649 1126.31 211.657 1163.27 149.141 1212.24L75.0808 1212.21Z" fill="#53BDB1"/>
        <path d="M269.382 51.4022C281.871 49.6106 294.897 45.7925 308.671 41.7623C332.267 34.8686 356.397 27.8692 379.763 30.2593C400.576 28.2694 421.063 29.9072 439.825 40.2925C462.213 52.712 469.522 82.712 460.198 104.785C430.939 173.99 326.673 177.429 312.123 256.371L312.123 256.478C303.1 289.437 321.6 327.14 341.937 351.828C376.544 393.616 439.656 428.093 496.736 435.239C499.297 435.137 501.965 435.142 504.526 435.04C527.364 434.441 552.657 433.847 577.731 435.599C620.417 435.89 664.802 440.132 698.699 461.217C752.21 494.395 737.116 579.313 686.774 564.175C684.423 565.984 681.859 567.581 679.189 568.643C668.723 572.999 650.9 573.927 626.18 553.073C599.329 530.508 574.27 520.325 547.377 520.809C523.685 521.3 498.058 530.111 464.301 549.258C434.39 566.278 405.639 591.411 375.283 618.141C328.361 659.248 279.729 701.846 224.856 713.805C191.228 721.107 152.706 719.97 110.251 710.289C89.4501 705.556 67.5859 698.793 44.9783 690.002L44.9907 683.172C68.1312 692.285 90.4219 699.262 111.649 704.102C153.144 713.568 190.812 714.704 223.48 707.613C276.751 695.971 324.742 654.013 371.13 613.332C401.806 586.495 430.772 561.043 461.217 543.704C495.935 523.918 522.523 514.895 547.282 514.406C575.882 513.818 602.221 524.537 630.351 548.172C648.039 563.037 664.037 567.975 676.745 562.662C688.066 557.881 695.666 545.196 696.976 528.55C698.505 509.665 690.978 482.012 665.076 465.851C620.839 438.345 556.38 440.043 504.621 441.336C499.286 441.433 494.056 441.637 488.934 441.735C427.037 443.01 348.882 406.052 307.355 355.821C286.484 330.598 267.56 291.613 276.906 257.588L276.906 257.481C286.572 223.457 321.936 200.578 356.231 178.55C380.911 162.587 404.202 147.583 417.681 129.039C430.626 111.348 435.782 92.8954 432.289 77.2021C429.325 63.9641 420.593 53.1701 406.202 45.1405C376.458 28.5458 342.825 38.4093 310.367 47.8481C296.38 51.9846 283.14 55.8023 270.225 57.6998C233.078 63.0749 189.333 58.8338 147.097 45.8448C107.209 33.5004 71.9216 13.9077 46.3534 -9.936L46.3694 -18.7933C71.5087 6.22348 107.754 26.885 149.03 39.6588C189.772 52.325 233.624 56.5664 269.382 51.4022Z" fill="#53BDB1"/>
        <path d="M537.354 1117.75C595.781 1087.45 651.111 1058.84 670.062 1024.62C681.732 1003.51 684.006 985.373 677.099 969.139C658.183 925.459 574.024 904.07 499.785 885.154C443.785 870.966 395.466 858.606 376.187 838.723C353.073 814.883 344.048 789.469 349.325 763.227C364.294 688.127 490.326 628.168 528.666 611.59C589.435 585.235 632.86 589.689 683.908 627.345C690.302 632.052 697.015 637.614 704.154 643.496C735.481 669.271 774.588 701.249 815.059 686.596C846.774 675.128 879.522 682.337 909.677 707.47C934.823 728.538 957.067 761.553 970.554 798.074C975.438 811.316 979.682 825.09 983.82 838.436C999.097 887.98 1013.63 934.747 1059.89 964.604C1074.81 974.235 1092.62 983.765 1112.03 992.231L1112.01 999.167C1091.22 990.272 1072.24 980.207 1056.36 969.933C1008.18 938.792 992.693 888.715 977.627 840.239C973.489 826.999 969.352 813.332 964.467 800.198C951.405 764.638 929.907 732.585 905.506 712.265C885.794 695.795 854.45 678.984 817.183 692.469C773.294 708.397 732.696 675.135 700.09 648.291C693.058 642.515 686.344 637.061 680.057 632.354C631.247 596.303 589.529 592.065 531.217 617.358C509.43 626.816 467.135 646.801 428.454 674.477C385.927 705.027 361.434 735.29 355.619 764.305C350.88 788.414 359.268 811.907 380.784 834.142C398.785 852.743 448.704 865.426 501.397 878.861C577.129 898.1 662.888 919.918 682.973 966.482C690.731 984.424 688.239 1004.91 675.712 1027.62C655.798 1063.54 599.72 1092.57 540.332 1123.31C487.351 1150.74 433.089 1178.92 403.575 1212.7L395.251 1212.68C424.664 1176.13 481.596 1146.57 537.354 1117.75Z" fill="#53BDB1"/>
        <path d="M658.06 1155.64C692.773 1138.52 725.564 1122.25 741.29 1100.72C765.896 1067.05 775.57 1028.43 768.486 991.924C761.297 954.668 737.133 921.542 700.571 898.853C685.861 889.755 657.171 880.953 626.667 871.613C565.66 852.934 496.548 831.786 487.436 795.273C484.47 783.316 485.877 772.54 491.656 763.267C507.068 738.43 550.518 729.011 585.321 721.498C600.373 718.217 613.397 715.466 621.407 711.959C664.767 693.149 695.816 696.407 732.263 723.258C737.698 727.323 743.026 731.815 748.78 736.627C763.59 749.14 778.827 762.186 796.428 765.953C805.069 767.783 813.288 766.197 822.042 764.506C832.504 762.497 843.392 760.383 854.483 764.778C898.631 781.932 914.741 843.536 927.67 893.075C931.273 906.847 934.665 919.873 938.274 930.337C961.841 998.464 994.007 1091.68 1063.08 1136.31C1076.51 1144.98 1093.14 1153.44 1111.27 1160.51L1111.26 1167.34C1091.74 1159.94 1073.83 1150.95 1059.55 1141.64C988.663 1095.84 955.967 1001.33 932.187 932.354C928.472 921.569 925.081 908.437 921.371 894.557C908.759 846.406 893.181 786.511 852.018 770.536C842.527 766.891 833.133 768.688 823.098 770.59C814.131 772.282 804.737 774.079 794.923 772.033C775.722 767.943 759.846 754.469 744.502 741.422C738.962 736.716 733.634 732.224 728.412 728.373C694.096 703.02 664.862 700.086 623.851 717.833C615.307 721.552 601.963 724.409 586.59 727.796C552.855 735.098 511.006 744.2 496.986 766.691C492.063 774.579 490.98 783.328 493.522 793.79C501.786 826.887 571.965 848.357 628.492 865.534C660.702 875.41 688.539 883.891 703.889 893.416C741.943 917.176 767.172 951.69 774.678 990.761C782.078 1029.09 772.081 1069.41 746.406 1104.57C729.717 1127.38 696.285 1143.97 660.824 1161.41C629.529 1176.82 597.593 1192.66 577.066 1213.22L568.102 1213.21C589.168 1189.66 623.988 1172.44 658.06 1155.64Z" fill="#53BDB1"/>
        <path d="M770.523 1167.26L773.197 1164.06C806.459 1123.46 844.105 1077.54 826.811 1022.23C822.567 1008.56 815.442 995.206 808.635 982.388C793.64 954.082 778.112 924.814 791.196 889.515C799.131 868.08 810.347 862.444 818.459 861.392C831.481 859.815 845.55 869.018 857.896 887.288C876.628 914.961 884.998 948.058 893.051 980.087C896.971 995.567 900.997 1011.58 906.092 1026.42C926.793 1086.22 954.076 1165.35 1007.24 1214L997.954 1213.98C947.035 1164.05 920.389 1087.06 900.113 1028.55C894.911 1013.39 890.778 997.264 886.858 981.676C878.912 950.181 870.647 917.725 852.554 890.907C841.698 874.987 829.548 866.534 819.194 867.796C810.228 868.847 802.636 877.157 797.168 891.767C785.05 924.4 799.301 951.104 814.296 979.41C821.209 992.549 828.441 1006.11 832.897 1020.32L832.897 1020.42C851.146 1079.04 812.323 1126.35 778.098 1168.23L775.425 1171.43C774.569 1172.49 773.286 1173.98 771.788 1175.79C760.345 1189.54 750.398 1202.11 742.053 1213.52L734.05 1213.5C744.534 1198.9 756.299 1184.3 766.887 1171.62C768.491 1169.81 769.668 1168.32 770.523 1167.26Z" fill="#53BDB1"/>
        <path d="M490.066 163.126C519.554 151.355 546.304 147.326 565.383 151.665C592.542 157.848 607.461 178.781 621.801 199.086C627.015 206.325 632.439 213.95 638.281 220.612C653.572 238.01 671.927 247.077 691.391 256.718C711.668 266.77 732.615 277.077 749.591 297.566L749.874 298.031C756.518 309.03 761.004 319.26 763.344 328.42C779.615 365.948 780.244 409.173 743.099 423.497C696.285 441.499 643.968 377.104 603.649 360.407C548.929 337.677 494.769 368.969 438.64 352.902C398.483 341.424 372.522 297.151 375.309 279.065C375.626 276.888 376.172 274.645 376.79 272.48C376.846 271.123 376.975 269.844 377.181 268.494C379.987 249.955 392.518 230.007 413.481 210.709C433.979 191.695 461.882 174.421 490.066 163.126ZM688.434 262.486C669.265 253.009 649.506 243.204 633.347 224.863C627.289 217.967 621.792 210.263 616.512 202.794C602.166 182.64 588.53 163.573 563.915 157.948C527.554 149.647 460.535 175.951 417.746 215.342C397.882 233.627 386.082 252.322 383.49 269.359C380.696 287.595 397.023 301.865 431.729 311.834C455.763 318.719 480.935 321.799 505.36 324.698C537.897 328.687 571.489 332.719 603.12 345.809C614.629 350.59 625.839 357.096 636.603 363.432C664.4 379.761 690.726 395.124 722.959 382.712C733.014 378.823 741.139 374.099 746.87 368.823C763.358 353.645 762.61 331.562 744.525 301.36C728.326 282.186 708.048 272.134 688.434 262.486Z" fill="#53BDB1"/>
        <path d="M218.513 923.478C221.29 921.776 224.387 920.501 227.697 919.547C248.624 913.608 273.264 919.843 295.217 936.53C320.793 955.998 337.388 985.482 337.34 1011.63C337.335 1014.4 337.117 1017.28 336.792 1019.95C335.17 1031.47 329.177 1040.64 318.921 1047.34C298.407 1060.65 263.511 1060.9 241.006 1054.46C227.993 1050.7 216.168 1039.69 207.767 1023.45C200.11 1008.71 195.768 990.561 195.798 973.593C195.947 950.223 204.198 931.883 218.513 923.478ZM242.724 1048.27C260.75 1053.53 295.216 1054.98 315.409 1041.89C324.063 1036.25 329.092 1028.58 330.39 1018.98C330.715 1016.52 330.933 1014.07 330.938 1011.51C330.981 987.284 315.451 959.724 291.366 941.538C271.012 926.135 248.399 920.331 229.394 925.632C226.618 926.374 224.055 927.544 221.704 928.927C209.312 936.268 202.239 952.475 202.201 973.605C202.253 1003.91 217.659 1041.08 242.724 1048.27Z" fill="#53BDB1"/>
        <path d="M210.054 566.004C206.931 566.929 203.609 567.359 200.165 567.424C178.414 567.744 156.228 555.345 139.342 533.544C119.676 508.119 111.278 475.346 118.09 450.104C118.813 447.425 119.77 444.699 120.774 442.207C125.323 431.497 133.484 424.193 145.126 420.372C168.384 412.832 202.157 421.616 222.228 433.665C233.824 440.663 242.396 454.362 246.309 472.219C249.89 488.439 249.387 507.094 244.965 523.475C238.773 546.011 226.057 561.59 210.054 566.004ZM218.967 439.196C202.917 429.448 170.001 419.127 147.108 426.544C137.289 429.752 130.445 435.863 126.706 444.802C125.757 447.089 124.912 449.403 124.244 451.875C117.932 475.263 125.8 505.904 144.357 529.703C160.032 549.85 180.372 561.309 200.102 561.107C202.975 561.109 205.754 560.642 208.382 559.915C222.252 556.031 233.278 542.206 238.784 521.807C246.578 492.519 241.315 452.633 218.967 439.196Z" fill="#53BDB1"/>
        <path d="M376.492 472.001C381.018 474.625 386.198 479.946 385.095 490.192C384.072 499.779 377.181 513.926 370.37 520.459C360.566 529.893 341.015 527.629 327.889 520.02C318.535 514.597 313.067 506.992 313.084 499.14C313.061 497.614 313.276 496.026 313.686 494.449C315.761 486.178 323.931 478.518 335.968 473.402C348.363 468.191 365.705 465.747 376.492 472.001ZM318.686 495.735C318.419 496.891 318.272 498.015 318.243 499.107C318.303 505.088 322.744 510.989 330.513 515.494C344.997 523.891 360.546 522.625 366.813 516.684C372.667 511.107 378.99 497.941 379.897 489.597C380.54 483.62 378.545 479.238 373.868 476.527C365.947 471.935 351.212 472.664 337.896 478.248C327.583 482.65 320.382 489.159 318.686 495.735Z" fill="#53BDB1"/>
        <path d="M18.3582 271.326C14.5717 299.705 -26.3541 329.298 -43.7694 340.685C-51.9961 346.006 -60.2221 350.9 -68.4471 355.26L-68.4339 348.004C-61.3838 344.175 -54.2261 339.919 -47.2813 335.343C-12.5574 312.569 9.68329 288.385 12.0635 270.461C14.0105 256.058 2.61052 245.792 -21.8169 239.985C-35.2572 236.759 -51.6943 238.33 -68.2414 241.715L-68.2296 235.206C-51.3623 231.821 -34.4988 230.465 -20.3116 233.798C-1.00424 238.316 21.3874 248.601 18.3582 271.326Z" fill="#53BDB1"/>
        <path d="M265.104 194.834C265.499 212.336 258.104 229.717 242.597 248.257C218.213 277.24 182.754 293.93 148.576 310.088C146.44 311.045 144.411 312.002 142.381 313.065C67.7237 348.359 7.04938 381.757 -46.182 430.109C-48.5336 432.239 -51.2057 434.582 -54.0918 437.245C-58.3674 441.079 -63.2842 445.445 -68.5218 450.238L-68.5062 441.594C-64.8719 438.292 -61.4517 435.311 -58.3519 432.542C-55.466 429.986 -52.7937 427.536 -50.4423 425.513C3.43041 376.628 64.532 343.017 139.724 307.404C141.753 306.448 143.889 305.491 146.025 304.428C179.669 288.588 214.381 272.217 237.908 244.3C252.346 227.039 259.312 210.938 258.914 195.143C258.524 174.44 253.114 156.929 243.318 144.532C232.671 131.067 217.637 124.317 198.534 124.709C164.705 125.288 134.05 140.279 104.357 154.845C74.7711 169.305 44.3306 184.19 9.85899 185.728C-19.2763 186.956 -46.1613 183.065 -68.0226 174.702L-68.0102 167.872C-46.6829 176.448 -19.7982 180.552 9.55047 179.324C42.6346 177.89 72.5412 163.218 101.486 149.077C131.713 134.299 163.008 118.989 198.332 118.306C238.458 117.418 264.123 146.811 265.104 194.834Z" fill="#53BDB1"/>
    </g>
</svg>
