<svg width="709" height="643" viewBox="0 0 709 643" fill="none" xmlns="http://www.w3.org/2000/svg">
<path d="M332.83 1.46094C357.749 1.46094 372.31 9.52532 381.541 22.3918C390.844 35.3593 394.837 53.3281 398.257 73.3995C398.834 76.7857 399.394 80.2298 399.961 83.7161C406.082 121.363 413.002 163.921 450.643 191.383C488.728 219.169 529.746 210.705 565.493 203.328C568.372 202.734 571.217 202.147 574.023 201.586C592.947 197.807 610.027 195.246 624.297 199.493C638.435 203.701 650.004 214.667 657.713 238.491C673.273 286.581 681 315.558 681 344.496C681 373.435 673.273 402.412 657.713 450.501C642.153 498.591 631.443 526.594 614.504 550.006C597.566 573.417 574.354 592.298 533.617 622.019C513.352 636.804 497.823 641.948 484.391 641.509C470.944 641.07 459.412 635.034 447.11 627.025C443.962 624.976 440.77 622.8 437.488 620.564C415.15 605.343 388.709 587.326 344.5 587.326C301.676 587.326 271.348 604.237 244.643 619.127C239.759 621.85 234.996 624.506 230.3 626.978C215.082 634.99 200.606 641.067 184.92 641.509C169.267 641.95 152.274 636.78 132.042 622.019C91.3055 592.298 68.0937 573.417 51.1554 550.006C34.2168 526.594 23.5071 498.591 7.94687 450.501C0.19663 426.549 -0.516838 410.576 3.09769 398.572C6.70798 386.582 14.6859 378.375 24.7659 370.042C27.3732 367.886 30.116 365.727 32.9496 363.496C52.0383 348.466 75.2455 330.194 88.885 288.041C101.691 248.462 97.6165 213.914 93.9751 183.042C93.1699 176.216 92.3859 169.569 91.8103 163.087C90.218 145.156 90.211 128.502 95.6098 112.658C101 96.8407 111.813 81.7327 132.042 66.9737C172.78 37.2526 197.835 20.9195 225.24 11.9776C252.646 3.03568 282.476 1.46094 332.83 1.46094Z" stroke="white" stroke-opacity="0.3" stroke-width="2"/>
<path d="M334.328 65.6253C350.607 65.6757 360.153 65.9612 365.866 67.2797C368.711 67.9362 370.544 68.8366 371.779 70.0423C373.009 71.2432 373.698 72.7979 374.154 74.8747C374.553 76.697 374.764 78.8865 375.016 81.5065C375.924 90.9444 377.369 105.968 390.127 129.531C397.8 143.703 399.688 155.104 401.336 165.052C401.424 165.584 401.512 166.112 401.599 166.636C403.327 176.968 405.122 185.813 413.573 194.499C421.995 203.154 436.984 211.612 464.96 221.373C492.947 231.139 533.996 242.229 594.599 256.114C624.887 263.053 647.972 269.722 665.138 276.226C682.314 282.734 693.522 289.061 700.094 295.296C706.643 301.51 708.555 307.593 707.244 313.691C705.92 319.847 701.295 326.122 694.508 332.631C687.732 339.13 678.867 345.801 669.167 352.761C666.262 354.844 663.283 356.954 660.263 359.092C653.209 364.086 645.937 369.235 638.897 374.567C618.809 389.78 600.452 406.593 594.234 425.862C592.411 431.513 590.672 436.986 588.989 442.285C579.278 472.853 571.413 497.612 559.855 516.982C546.325 539.657 527.736 554.937 495.128 563.379C462.685 571.78 442.762 554.377 420.751 534.632L419.944 533.908C398.18 514.38 374.278 492.934 334.329 492.934C294.281 492.934 270.181 514.44 248.28 533.985L247.635 534.56C225.529 554.284 205.607 571.685 173.531 563.379C109.104 546.698 82.4914 488.085 74.4445 425.951C72.4379 410.457 73.7496 399.959 77.2341 391.584C80.7225 383.2 86.4078 376.893 93.27 369.795C93.985 369.055 94.7122 368.308 95.4503 367.549C108.896 353.725 125.979 336.163 139.104 295.486C151.346 257.544 150.482 229.037 149.734 204.379C149.636 201.162 149.541 198.01 149.476 194.912C149.198 181.487 149.508 169.08 152.767 156.634C156.024 144.196 162.232 131.693 173.786 118.102C196.914 90.8965 220.796 77.7398 246.996 71.3978C271.807 65.3921 298.704 65.4929 329.076 65.6067C330.815 65.6132 332.566 65.6198 334.328 65.6253Z" stroke="white" stroke-opacity="0.3"/>
<path d="M336.958 116.667C363.143 126.843 369.502 147.655 375.54 170.932C375.797 171.922 376.053 172.916 376.311 173.914C382.082 196.315 388.323 220.537 412.6 238.229C437.301 256.231 461.766 253.785 483.984 251.562C484.587 251.502 485.188 251.442 485.787 251.383C497.173 250.252 507.889 249.333 517.863 251.301C527.779 253.257 536.989 258.075 545.321 268.517C557.97 284.368 571.822 291.773 583.015 297.756C586.951 299.86 590.558 301.788 593.668 303.846C599.657 307.808 603.86 312.238 605.45 319.316C607.058 326.474 606.031 336.491 601.104 351.7C591.261 382.088 570.482 420.461 545.631 452.252C533.208 468.144 519.789 482.365 506.237 493.113C492.674 503.87 479.046 511.095 466.201 513.104C453.28 515.124 443.45 513.707 434.934 510.474C426.514 507.278 419.341 502.296 411.652 496.957L411.292 496.706C395.631 485.831 378.056 473.826 344.556 473.826C311.093 473.826 289.443 485.631 269.958 496.396L269.51 496.644C250.205 507.31 233.086 516.769 208.433 513.102C183.438 509.385 157.264 496.139 136.532 477.627C115.796 459.11 100.61 435.42 97.4206 410.889C95.8404 398.735 98.8235 390.104 104.497 382.883C110.224 375.594 118.706 369.715 128.255 363.144L128.556 362.937C147.536 349.878 170.225 334.265 181.352 299.917C191.594 268.295 187.849 238.837 184.461 212.19C184.16 209.818 183.861 207.469 183.575 205.143C180.068 176.587 178.531 151.581 196.816 130.155C215.218 108.593 236.909 100.075 260.639 99.4931C284.427 98.9102 310.292 106.304 336.958 116.667Z" stroke="white" stroke-opacity="0.3" stroke-width="2"/>
<path d="M269.324 116.192C282.022 116.192 293.797 122.817 304.999 133.335C316.199 143.852 326.769 158.206 337.053 173.548C341.349 179.956 345.6 186.543 349.825 193.091C355.697 202.192 361.519 211.214 367.341 219.568C377.359 233.94 387.445 246.434 397.938 254.105C418.839 269.384 435.562 275.522 452.034 277.829C463.611 279.449 475.076 279.175 487.739 278.871C493.045 278.744 498.56 278.612 504.382 278.612C523.982 278.612 545.315 290.131 559.773 307.818C574.221 325.494 581.746 349.261 573.848 373.717C565.949 398.176 543.118 415.842 516.916 431.232C507.078 437.011 496.788 442.456 486.658 447.816C483.309 449.589 479.977 451.352 476.684 453.115C463.445 460.204 450.85 467.287 440.398 474.927C435.237 478.701 430.675 480.529 426.547 480.888C422.428 481.245 418.692 480.143 415.168 477.964C408.08 473.582 401.913 464.893 395.364 455.128C394.759 454.225 394.15 453.313 393.537 452.395C387.553 443.429 381.184 433.886 373.498 426.354C365.01 418.036 354.877 412.128 341.824 412.128C328.776 412.128 318.125 418.032 308.86 426.339C300.697 433.657 293.572 442.878 286.814 451.625C285.911 452.794 285.015 453.954 284.123 455.1C276.532 464.859 269.321 473.561 261.444 477.952C257.522 480.139 253.452 481.246 249.096 480.887C244.736 480.528 240.044 478.697 234.888 474.927C215.402 460.683 196.298 464.642 180.006 468.019C178.698 468.29 177.408 468.557 176.138 468.811C167.55 470.527 159.915 471.614 153.444 469.283C147.024 466.969 141.632 461.238 137.677 448.993C133.744 436.812 135.423 424.754 140.444 412.717C145.47 400.67 153.83 388.673 163.215 376.639C167.083 371.678 171.134 366.703 175.192 361.717C180.953 354.639 186.731 347.542 192.029 340.438C201.072 328.313 208.792 316.076 212.798 303.671C219.35 283.38 217.266 265.67 215.402 249.841C214.99 246.341 214.589 242.932 214.294 239.608C213.479 230.414 213.476 221.872 216.239 213.746C218.999 205.633 224.534 197.885 234.888 190.316C245.415 182.62 249.65 174.053 250.854 165.53C252.007 157.368 250.373 149.274 248.929 142.125C248.872 141.841 248.815 141.558 248.758 141.276C248.015 137.584 247.358 134.17 247.182 131.112C247.007 128.055 247.317 125.411 248.464 123.237C250.734 118.933 256.458 116.192 269.324 116.192Z" stroke="white" stroke-opacity="0.3"/>
</svg>
